<?xml version="1.0"?>
<svg xmlns="http://www.w3.org/2000/svg" fill="white" id="Layer_1" data-name="Layer 1" viewBox="0 0 128 128" width="512" height="512"><title>SMART HOME ORGANIC</title><path d="M90.187,56.053a1.25,1.25,0,0,0-1.25,1.25V95.75H75.689V76.121a1.25,1.25,0,0,0-1.25-1.25H53.56a1.25,1.25,0,0,0-1.25,1.25V91.25a1.25,1.25,0,1,0,2.5,0V77.371H73.189V95.75H39.062V57.057l24.079-12.69a1.25,1.25,0,1,0-1.166-2.212L37.229,55.2a1.25,1.25,0,0,0-.667,1.106V97a1.25,1.25,0,0,0,1.25,1.25H90.187A1.25,1.25,0,0,0,91.437,97V57.3A1.25,1.25,0,0,0,90.187,56.053Z"/><path d="M76.693,58.915V66.5a1.25,1.25,0,1,0,2.5,0V58.915a11.08,11.08,0,0,0,9.818-10.992c0-5.718-9.082-16.521-10.118-17.734a1.29,1.29,0,0,0-1.9,0C75.957,31.4,66.875,42.2,66.875,47.923A11.08,11.08,0,0,0,76.693,58.915Zm1.25-25.958C81,36.721,86.512,44.279,86.512,47.923a8.574,8.574,0,0,1-7.318,8.466V51.74l4.133-3.187A1.25,1.25,0,1,0,81.8,46.573l-2.605,2.009V44.371a1.25,1.25,0,1,0-2.5,0V56.389a8.574,8.574,0,0,1-7.318-8.466C69.375,44.279,74.892,36.721,77.943,32.957Z"/></svg>
