 <svg xmlns="http://www.w3.org/2000/svg" x="0" y="0" viewBox="0 0 1000 1000" fill="white">
      <path
        d="M3918.9 4307.3C2410 4140.9 1176.4 3291.8 510.9 1957.9 361.7 1659.6 232.6 1286.6 158 939.5c-77.4-350-77.4-1313.8 0-1663.8 332.8-1520.4 1405.6-2713.8 2860-3178.5 438.9-140.6 757.3-189.3 1273.7-189.3 507.8 0 783.1 40.2 1259.3 186.5l284 88.9 189.3-88.9c321.3-146.3 504.9-186.5 834.8-186.5 470.5 0 700 83.2 1477.4 542.2 220.9 131.9 481.9 266.8 579.5 298.3 206.6 68.9 433.2 74.6 596.7 17.2 238.1-86.1 387.3-20.1 387.3 166.4 0 120.5-83.2 197.9-272.5 258.2-223.8 68.9-372.9 80.3-576.6 48.8-266.8-43-504.9-146.3-961-418.8-507.8-304.1-570.9-335.6-823.3-413.1-172.1-51.6-258.2-60.3-473.3-51.6-146.3 8.6-301.2 28.7-347.1 48.7l-83.2 34.4 269.6 175c367.2 241 900.8 774.5 1153.2 1158.9 341.4 516.4 550.8 1041.3 654 1652.4 83.2 479 66 1150.3-40.1 1603.5-192.2 820.4-588.1 1514.6-1196.2 2102.7-777.4 748.7-1724.1 1147.5-2796.9 1179-203.7 3-424.6 3-487.7-2.8zm1021.2-487.7c252.4-43 760.2-192.2 806.1-238.1 22.9-20.1-192.2-387.3-401.6-682.7l-126.2-175-189.3 203.7c-261.1 281.1-375.8 395.9-691.4 688.5l-272.5 249.6h301.2c166.4-.1 424.5-20.1 573.7-46zm-1190.5-275.4c292.6-241 1035.6-972.5 1121.7-1101.6 45.9-71.7 45.9-74.6-223.8-344.2-149.2-152-350-338.5-450.4-418.8l-180.8-143.4-218 238.1c-398.8 438.9-940.9 938-1408.5 1296.6l-206.6 160.6 77.5 54.5c226.6 157.8 995.4 484.8 1158.9 490.5 26 3 172.2-103.2 330-232.3zm2779.7-407.3c212.3-157.8 467.6-393 573.7-522.1l106.1-129.1-140.6-229.5C6595.3 1473.1 5840.9 641.2 5046.2 33 3999.2-770.2 2694-1332.4 1394.5-1539c-157.8-25.8-327-54.5-375.8-60.2-88.9-14.3-91.8-11.5-195.1 226.6-126.2 298.3-240.9 714.3-263.9 972.5l-20.1 192.2h120.5c63.1 0 249.6 20.1 413.1 43C2123.1-7.1 3193.1 411.7 4019.3 991.2c754.4 527.8 1494.6 1305.2 1942.1 2039.6 71.7 120.5 149.2 246.7 172.1 281.1l37.3 66 123.3-77.5c66-43 172.1-117.6 235.2-163.5zm-4389-433.2c447.5-347.1 900.7-757.3 1230.6-1115.9 226.6-243.8 278.3-312.7 243.8-335.6C3414 1117.4 3196 999.8 2889 850.6l-364.3-175-450.4 438.9c-249.6 243.8-582.4 545-743 671.3l-289.7 229.5 60.2 100.4c140.6 232.4 648.3 831.9 705.7 831.9 8.7 0 160.7-109 332.8-243.9zm5516.4-909.3c183.6-375.8 350-897.9 350-1098.7 0-189.3-1049.9-1333.9-1715.4-1873.2-1078.6-874.9-2294.9-1503.2-3588.7-1858.9l-352.8-97.5-220.9 152c-238.1 163.5-708.6 616.8-854.9 829l-94.7 132 123.3 20.1C2691-1791.4 3990.5-1266.4 5109.3-466.1c829 593.8 1661 1454.4 2183 2263.3 100.4 157.8 192.2 286.9 200.8 289.7 11.6.1 83.3-131.9 163.6-292.5zM1122 1395.6c134.8-111.9 404.5-352.8 599.5-536.4l355.7-332.8-111.9-40.2c-284-97.5-1141.7-263.9-1374.1-263.9h-80.3L531 431.8c40.2 421.7 241 1167.5 315.5 1167.5 17.3 0 140.6-91.8 275.5-203.7zM8032.5-311.2c-54.5-507.7-243.8-1067.1-502-1503.2l-140.6-235.2-40.2 223.8c-20.1 126.2-66 361.5-100.4 527.8l-63.1 301.2 315.5 344.2c175 189.3 370 404.5 433.2 479.1 60.2 74.6 114.7 132 120.5 129.1 2.9-5.7-5.7-123.4-22.9-266.8zM6885.1-1745.5c34.4-192.2 68.8-450.4 77.4-573.7l17.2-226.6-166.4-143.4c-232.4-200.8-370.1-301.2-570.9-424.6l-172-106.2-31.6 421.7c-17.2 235.2-43 516.4-54.5 625.4l-20.1 200.8 212.3 152c114.7 80.3 301.2 223.8 410.2 318.4 123.3 100.4 206.5 154.9 218 134.8 11.5-17.2 45.9-189.3 80.4-378.6zM5571.2-2477c11.5-100.4 28.7-352.8 40.2-559.4l20.1-375.8-80.3-31.5c-166.4-68.9-651.2-177.9-874.9-195.1l-229.5-20.1L4461-3547c8.6 60.3 23 246.7 34.4 413.1l17.2 301.2 269.6 140.5c146.3 77.5 367.2 200.8 490.5 278.3 123.3 74.6 238.1 132 252.4 129.1 17.4-5.8 37.5-88.9 46.1-192.2zm-1534.7-863.5c-11.5-163.5-25.8-301.2-34.4-307-20.1-20.1-573.7 77.5-800.3 143.4-120.5 34.4-206.5 71.7-195.1 83.2 11.5 11.5 169.2 68.8 350 129.1 180.7 60.2 401.6 137.7 487.7 175 88.9 37.3 172.1 66 186.5 68.9 14.2 0 17.1-126.2 5.6-292.6z"
        transform="matrix(.1 0 0 -.1 0 511)"
      ></path>
    </svg>